<svg xmlns="http://www.w3.org/2000/svg" xmlns:xlink="http://www.w3.org/1999/xlink" viewBox="0 0 494.87 359.47"><defs><style>.cls-1,.cls-11,.cls-12,.cls-14,.cls-15,.cls-18,.cls-2,.cls-21,.cls-22,.cls-23,.cls-24,.cls-25,.cls-27,.cls-28,.cls-29,.cls-6,.cls-7,.cls-8,.cls-9{fill:none;}.cls-1{clip-rule:evenodd;}.cls-3{clip-path:url(#clip-path);}.cls-4{clip-path:url(#clip-path-2);}.cls-10,.cls-19,.cls-20,.cls-5{fill:#fff;}.cls-14,.cls-15,.cls-19,.cls-20,.cls-23,.cls-25,.cls-27,.cls-6{stroke:#43415b;}.cls-14,.cls-18,.cls-19,.cls-20,.cls-21,.cls-22,.cls-25,.cls-28,.cls-29,.cls-6,.cls-7,.cls-8{stroke-miterlimit:10;}.cls-10,.cls-20,.cls-23,.cls-6,.cls-7,.cls-8,.cls-9{stroke-width:0.84px;}.cls-7{stroke:#7b7a8c;}.cls-13,.cls-7{opacity:0.45;}.cls-10,.cls-21,.cls-22,.cls-8,.cls-9{stroke:#60cfd5;}.cls-10,.cls-11,.cls-12,.cls-15,.cls-23,.cls-24,.cls-27,.cls-9{stroke-linecap:round;stroke-linejoin:round;}.cls-11{stroke:#f76973;}.cls-11,.cls-12{stroke-width:1.12px;}.cls-12,.cls-24{stroke:#4597b6;}.cls-13,.cls-26{fill:#7b7a8c;}.cls-14,.cls-15,.cls-18,.cls-19{stroke-width:0.67px;}.cls-16{fill:#43415b;}.cls-17{opacity:0.6;}.cls-18{stroke:#9c9cb3;}.cls-21,.cls-24{stroke-width:0.56px;}.cls-22{stroke-width:0.39px;}.cls-25{stroke-width:0.77px;}.cls-26{opacity:0.3;}.cls-27{stroke-width:1.21px;}.cls-28{stroke:#f4ce94;}.cls-28,.cls-29{stroke-width:0.63px;}.cls-29{stroke:#f2a73b;}</style><clipPath id="clip-path" transform="translate(5.99 5.99)"><path class="cls-1" d="M260.42,316.62c119.39-73.89,222.47-71.27,222.47-157.51S378.61-36.74,260.42,12,7.66,12,.27,169.94,141,390.52,260.42,316.62Z"/></clipPath><clipPath id="clip-path-2" transform="translate(5.99 5.99)"><rect class="cls-2" x="-667.41" y="-1487" width="2300.6" height="2273.04"/></clipPath></defs><g id="Layer_2" data-name="Layer 2"><g id="Layer_1-2" data-name="Layer 1"><g class="cls-3"><g class="cls-4"><rect class="cls-5" width="494.87" height="359.47"/></g></g><path class="cls-6" d="M256.94,239H206.48a5,5,0,0,1,5-5h40.37a5,5,0,0,1,5.05,5Z" transform="translate(5.99 5.99)"/><polygon class="cls-6" points="255.36 239.98 252.84 221.12 222.56 221.12 220.04 239.98 255.36 239.98"/><path class="cls-6" d="M298.43,195.22H165a1.27,1.27,0,0,1-1.27-1.27V113.22A1.26,1.26,0,0,1,165,112H298.43a1.26,1.26,0,0,1,1.26,1.26V194A1.27,1.27,0,0,1,298.43,195.22Z" transform="translate(5.99 5.99)"/><line class="cls-6" x1="310.78" y1="205.92" x2="164.61" y2="205.92"/><path class="cls-6" d="M298.43,215.07H165a6.32,6.32,0,0,1-6.31-6.31V112.89a6.32,6.32,0,0,1,6.31-6.31H298.43a6.31,6.31,0,0,1,6.3,6.31v95.87A6.31,6.31,0,0,1,298.43,215.07Z" transform="translate(5.99 5.99)"/><line class="cls-7" x1="233.36" y1="191.65" x2="295.77" y2="191.65"/><rect class="cls-8" x="243.24" y="169.72" width="3.63" height="15.94" transform="translate(496.09 361.37) rotate(-180)"/><rect class="cls-8" x="271.48" y="168.01" width="3.63" height="17.65" transform="translate(552.59 359.66) rotate(-180)"/><rect class="cls-8" x="277.13" y="163.85" width="3.63" height="21.81" transform="translate(563.89 355.5) rotate(-180)"/><rect class="cls-8" x="260.18" y="169.61" width="3.63" height="16.05" transform="translate(529.99 361.26) rotate(-180)"/><rect class="cls-8" x="248.89" y="158.6" width="3.63" height="27.06" transform="translate(507.39 350.25) rotate(-180)"/><rect class="cls-8" x="237.59" y="164.91" width="3.63" height="20.75" transform="translate(484.79 356.56) rotate(-180)"/><rect class="cls-8" x="282.78" y="165.61" width="3.63" height="20.05" transform="translate(575.19 357.26) rotate(-180)"/><rect class="cls-8" x="265.83" y="161.91" width="3.63" height="23.75" transform="translate(541.29 353.56) rotate(-180)"/><rect class="cls-8" x="231.94" y="168.82" width="3.63" height="16.84" transform="translate(473.49 360.47) rotate(-180)"/><rect class="cls-8" x="254.53" y="164.31" width="3.63" height="21.35" transform="translate(518.69 355.96) rotate(-180)"/><polyline class="cls-9" points="233.72 145.91 243.78 138.86 257.52 142.11 267.25 132.47 280.57 137.07 288.8 130.29"/><polyline class="cls-7" points="295.77 155.75 233.36 155.75 233.36 127.73"/><circle class="cls-10" cx="257.57" cy="142.04" r="1.27"/><circle class="cls-10" cx="267.25" cy="132.47" r="1.27"/><circle class="cls-10" cx="280.9" cy="137.09" r="1.27"/><circle class="cls-10" cx="244.13" cy="139.13" r="1.27"/><circle class="cls-7" cx="196.31" cy="142.08" r="12.76"/><circle class="cls-7" cx="196.31" cy="142.08" r="6.55"/><path class="cls-11" d="M190.32,123.34a12.73,12.73,0,1,0,11.16,6.57" transform="translate(5.99 5.99)"/><path class="cls-12" d="M190.32,129.54a6.55,6.55,0,1,0,5.93,9.34" transform="translate(5.99 5.99)"/><line class="cls-7" x1="190.66" y1="171.47" x2="216.48" y2="171.47"/><line class="cls-7" x1="190.66" y1="177.68" x2="216.48" y2="177.68"/><line class="cls-7" x1="190.66" y1="183.88" x2="216.48" y2="183.88"/><line class="cls-7" x1="190.66" y1="190.09" x2="216.48" y2="190.09"/><rect class="cls-13" x="184.06" y="169.85" width="3.24" height="3.24"/><rect class="cls-13" x="184.06" y="176.05" width="3.24" height="3.24"/><rect class="cls-13" x="184.06" y="182.26" width="3.24" height="3.24"/><rect class="cls-13" x="184.06" y="188.47" width="3.24" height="3.24"/><line class="cls-6" x1="40.68" y1="245.38" x2="395.17" y2="245.38"/><polyline class="cls-14" points="372 216.46 372.84 204.76 369.01 204.46 368.1 216.27"/><polyline class="cls-15" points="369.04 204.08 371.32 199.33 372.87 204.38"/><line class="cls-14" x1="370.91" y1="204.88" x2="370.02" y2="216.37"/><polyline class="cls-14" points="358.49 216.33 356.19 195.87 352.36 196.26 354.63 216.33"/><line class="cls-14" x1="354.3" y1="196.34" x2="356.57" y2="216.4"/><path class="cls-14" d="M346.45,184.25h3.08a.38.38,0,0,1,.38.38v5.46a0,0,0,0,1,0,0h-3.84a0,0,0,0,1,0,0v-5.46a.38.38,0,0,1,.38-.38Z" transform="translate(-11.13 42.1) rotate(-5.8)"/><line class="cls-14" x1="351.94" y1="192.06" x2="355.76" y2="191.67"/><polyline class="cls-14" points="363.23 216.96 362.33 200.68 358.92 200.87 359.82 217.15"/><path class="cls-14" d="M352.4,180.3h3.36a.56.56,0,0,1,.56.56V194.8a0,0,0,0,1,0,0h-4.48a0,0,0,0,1,0,0V180.86A.56.56,0,0,1,352.4,180.3Z" transform="translate(-3.83 25.84) rotate(-3.17)"/><line class="cls-14" x1="358.16" y1="199.46" x2="362.63" y2="199.22"/><polyline class="cls-14" points="373.39 216.6 375 200.37 378.39 200.71 376.79 216.93"/><path class="cls-14" d="M369.33,180.09h4.48a0,0,0,0,1,0,0v12.27a2.24,2.24,0,0,1-2.24,2.24h0a2.24,2.24,0,0,1-2.24-2.24V180.09a0,0,0,0,1,0,0Z" transform="matrix(-1, -0.1, 0.1, -1, 728.85, 416.42)"/><path class="cls-16" d="M373.55,187.75h0a.41.41,0,0,1,.41.41v12.58a0,0,0,0,1,0,0h-.41a.41.41,0,0,1-.41-.41V188.15A.41.41,0,0,1,373.55,187.75Z" transform="translate(732.11 430.37) rotate(-174.34)"/><line class="cls-14" x1="379.22" y1="199.34" x2="374.76" y2="198.9"/><line class="cls-14" x1="379.33" y1="198.2" x2="374.88" y2="197.76"/><g class="cls-17"><line class="cls-18" x1="362.81" y1="216.64" x2="354.11" y2="225.34"/><line class="cls-18" x1="371.53" y1="216.47" x2="354.13" y2="233.87"/><line class="cls-18" x1="377.99" y1="218.54" x2="354.09" y2="242.44"/><line class="cls-18" x1="378.19" y1="226.88" x2="360" y2="245.07"/><line class="cls-18" x1="378.07" y1="235.54" x2="368.48" y2="245.13"/><line class="cls-18" x1="369.55" y1="216.64" x2="378.14" y2="225.23"/><line class="cls-18" x1="360.84" y1="216.47" x2="377.98" y2="233.61"/><line class="cls-18" x1="354.16" y1="218.33" x2="378.16" y2="242.32"/><line class="cls-18" x1="354.17" y1="226.88" x2="372.3" y2="245"/><line class="cls-18" x1="354.3" y1="235.54" x2="363.87" y2="245.11"/></g><rect class="cls-14" x="354.16" y="216.69" width="23.85" height="28.42"/><rect class="cls-19" x="353.02" y="214.8" width="26.57" height="2.06" rx="1.03"/><rect class="cls-6" x="348.31" y="85.43" width="73.15" height="45.37"/><rect class="cls-6" x="352.63" y="89.75" width="64.52" height="36.73"/><polyline class="cls-6" points="377.04 85.24 384.89 77.39 392.74 85.24"/><circle class="cls-20" cx="384.89" cy="77.37" r="2.16"/><path class="cls-21" d="M404.3,91.57h0a1.6,1.6,0,0,0-1.6-1.6,1.71,1.71,0,0,0-.51.09,2.35,2.35,0,0,0-4.56.77,2.26,2.26,0,0,0,.14.74Z" transform="translate(5.99 5.99)"/><path class="cls-22" d="M360,94.85a1.62,1.62,0,0,0-2.21-1.48,2.33,2.33,0,0,0-4.45.29,1.53,1.53,0,0,0-.3,0,1.46,1.46,0,0,0-1.43,1.22Z" transform="translate(5.99 5.99)"/><path class="cls-6" d="M383.05,115.76h-9.93a7.48,7.48,0,0,1-7.1-5.15h24.12A7.46,7.46,0,0,1,383.05,115.76Z" transform="translate(5.99 5.99)"/><polygon class="cls-6" points="389.5 109.53 385.2 109.53 385.2 98.55 389.5 109.53"/><polygon class="cls-6" points="374.81 114.89 382.95 114.89 382.95 98.55 374.81 114.89"/><line class="cls-23" x1="384.07" y1="116.51" x2="384.07" y2="96.58"/><rect class="cls-5" x="372.25" y="119.16" width="23.01" height="4.49"/><line class="cls-24" x1="396.87" y1="119.37" x2="402.54" y2="119.37"/><line class="cls-24" x1="364.46" y1="119.37" x2="374.66" y2="119.37"/><line class="cls-24" x1="355.84" y1="119.37" x2="361.07" y2="119.37"/><line class="cls-24" x1="408.63" y1="120.96" x2="412.7" y2="120.96"/><line class="cls-24" x1="360.08" y1="121.52" x2="365.69" y2="121.52"/><line class="cls-24" x1="388.46" y1="121.73" x2="390.35" y2="121.73"/><line class="cls-24" x1="382.85" y1="123.77" x2="388.25" y2="123.77"/><line class="cls-24" x1="377.55" y1="121.73" x2="386.64" y2="121.73"/><line class="cls-24" x1="401.47" y1="122.79" x2="409.33" y2="122.79"/><rect class="cls-25" x="77.43" y="125.98" width="53.69" height="37.89"/><rect class="cls-25" x="77.43" y="85.14" width="53.69" height="38.45"/><rect class="cls-25" x="80.62" y="88.41" width="47.32" height="31.92"/><rect class="cls-26" x="84.77" y="133.27" width="9.26" height="9.26"/><rect class="cls-26" x="99.65" y="133.27" width="9.26" height="9.26"/><rect class="cls-26" x="114.52" y="133.27" width="9.26" height="9.26"/><rect class="cls-26" x="84.77" y="147.87" width="9.26" height="9.26"/><rect class="cls-26" x="99.65" y="147.87" width="9.26" height="9.26"/><rect class="cls-26" x="114.52" y="147.87" width="9.26" height="9.26"/><line class="cls-27" x1="90.8" y1="127.55" x2="90.8" y2="122.5"/><line class="cls-27" x1="97.54" y1="127.55" x2="97.54" y2="122.5"/><line class="cls-27" x1="104.28" y1="127.55" x2="104.28" y2="122.5"/><line class="cls-27" x1="111.02" y1="127.55" x2="111.02" y2="122.5"/><line class="cls-27" x1="117.75" y1="127.55" x2="117.75" y2="122.5"/><polyline class="cls-25" points="80.41 107.53 87.63 99.78 90.83 96.35 104.21 111.26"/><polyline class="cls-25" points="96.49 120.12 108.77 106.09 121.06 120.12"/><polyline class="cls-25" points="88.09 99.39 89.15 100.69 90.37 99.62 92.04 101.6 93.94 100.15"/><circle class="cls-28" cx="120.29" cy="95.88" r="3.8"/><circle class="cls-29" cx="120.29" cy="95.88" r="2.36"/><polyline class="cls-25" points="104.82 110.57 105.96 111.79 108.32 109.66 109.53 111.03 111.36 109.28"/></g></g></svg>