<svg xmlns="http://www.w3.org/2000/svg" xmlns:xlink="http://www.w3.org/1999/xlink" viewBox="0 0 374.59 266.01"><defs><style>.cls-1,.cls-11,.cls-2,.cls-7{fill:none;}.cls-1{clip-rule:evenodd;}.cls-3{clip-path:url(#clip-path);}.cls-4{clip-path:url(#clip-path-2);}.cls-5{fill:#fff;}.cls-10,.cls-6,.cls-8{fill:#525252;}.cls-11,.cls-6,.cls-9{opacity:0.5;}.cls-11,.cls-7{stroke:#525252;stroke-miterlimit:10;stroke-width:1.36px;}.cls-8{font-size:8.69px;font-family:Montserrat-Regular, Montserrat;}</style><clipPath id="clip-path" transform="translate(5.99 5.99)"><path class="cls-1" d="M172.9,233.3c85.48-52.89,115.14-7,163.64-42.1s32.88-149.72-77-179.75S5.51,7.92.22,120.94,87.42,286.19,172.9,233.3Z"/></clipPath><clipPath id="clip-path-2" transform="translate(5.99 5.99)"><rect class="cls-2" x="-694.95" y="-1239.49" width="2300.6" height="2273.04"/></clipPath></defs><g id="Layer_2" data-name="Layer 2"><g id="Layer_1-2" data-name="Layer 1"><g class="cls-3"><g class="cls-4"><rect class="cls-5" width="374.59" height="266.01"/></g></g><path class="cls-6" d="M250.85,69.56s-.85,8.33-1.23,10.28c-.73,3.76-.42,4.82,3.22,4.8,2.28,0,4.56.13,6.27.13,2.08,0,2.91.52,2.46,3.12-.67,3.89-1.24,12.09-1.24,12.09Z" transform="translate(5.99 5.99)"/><rect class="cls-6" x="260.2" y="122.63" width="2.53" height="6.97" rx="1.27"/><circle class="cls-6" cx="261.77" cy="150.24" r="12"/><path class="cls-7" d="M290.6,94.1l-2.52-18.88c-1-9.11-7.77-16.26-16.9-17.14l-2-.19q-6.89-.66-13.81-.67h0q-6.91,0-13.81.67l-2,.19c-9.13.88-15.86,8-16.9,17.14L220.22,94.1A142.51,142.51,0,0,0,219,112.91h0a286,286,0,0,0,1.88,32.71l2,12.37c1,8.62,8,15.51,15.9,16.51l1.55.17.73.08a128.13,128.13,0,0,0,14.39.81h0a128.13,128.13,0,0,0,14.39-.81l.73-.08,1.56-.17C280,173.5,287,166.61,288,158l2-12.37a288.33,288.33,0,0,0,1.87-32.71h0A142.51,142.51,0,0,0,290.6,94.1Z" transform="translate(5.99 5.99)"/><text class="cls-8" transform="translate(99.88 152.8)">UPRIGHT</text><g class="cls-9"><path class="cls-10" d="M111.23,121.76l2.52,0,3.44,11.4c-.29-3.15.61-6.29,1-9.44.22-1.66-.58-1.94-1.52-1.93s-2.8,0-2.8,0l-3.42-11.41c.29,3.16-.61,6.29-1,9.45C109.2,122,110.74,121.75,111.23,121.76Z" transform="translate(5.99 5.99)"/></g><path class="cls-11" d="M111.63,154.56a4.74,4.74,0,1,0,4.41,0" transform="translate(5.99 5.99)"/><line class="cls-11" x1="119.79" y1="162.19" x2="119.79" y2="159.07"/><path class="cls-7" d="M150.14,99.38c0,10.37-.24,20.74-.18,31.11.06,10.11.77,20.43-1.51,30.33a52.27,52.27,0,0,1-2.3,9.18c-2.66,9.71-6.05,19.21-7,29.3-.48,4.95-.6,9.93-1,14.89-.19,2.53-.07,5.61-1.47,7.84-1.5,2.38-4.73,3-7.22,3.58-7.56,2.34-24.11,2.29-31.64-.1-2.27-.56-5.1-1.11-6.72-3s-1.67-4.72-1.81-7c-.55-9.77-.76-19.44-3.13-29-1.39-5.62-3.15-11.13-4.64-16.72a52.37,52.37,0,0,1-2.24-9.19c-2.06-9.23-1.44-18.7-1.34-28.1s0-19.06,0-28.59a69.39,69.39,0,0,1,1.54-15.75A52.27,52.27,0,0,1,81.84,79c2.66-9.71,6.06-19.21,7-29.3.48-5,.6-9.93,1-14.89.19-2.54.07-5.61,1.48-7.84s4.72-3,7.21-3.58c7.56-2.34,24.11-2.29,31.64.1,7.21,1.77,8.2,3,8.57,10.81.59,7.46.44,15,1.81,22.37,1.42,7.66,3.92,15,5.92,22.54a51.5,51.5,0,0,1,2.24,9.19,49.94,49.94,0,0,1,1.45,11c0,8.41,0-3.66,0,0C150.11,109.75,150.15,95.72,150.14,99.38Z" transform="translate(5.99 5.99)"/></g></g></svg>