<?xml version="1.0" encoding="utf-8"?>
<!-- Generator: Adobe Illustrator 21.1.0, SVG Export Plug-In . SVG Version: 6.00 Build 0)  -->
<svg version="1.1" id="Layer_1" xmlns="http://www.w3.org/2000/svg" xmlns:xlink="http://www.w3.org/1999/xlink" x="0px" y="0px"
	 viewBox="0 0 160 50" style="enable-background:new 0 0 160 50;" xml:space="preserve">
<style type="text/css">
	.st0{fill:#191919;}
	.st1{fill:none;stroke:#191919;stroke-width:1.0714;stroke-linecap:round;stroke-linejoin:round;stroke-miterlimit:10;}
</style>
<g>
	<g>
		<g>
			<g>
				<path class="st0" d="M42.2,24.6h-1.4v-19h1.4V24.6z"/>
				<path class="st0" d="M47.7,24.6V11.3h0.7c0.2,0,0.4,0.1,0.4,0.3l0.1,2c0.6-0.8,1.3-1.4,2.1-1.9c0.8-0.5,1.7-0.7,2.7-0.7
					c0.7,0,1.4,0.1,1.9,0.3s1,0.6,1.4,1c0.4,0.4,0.6,1,0.8,1.6c0.2,0.6,0.3,1.3,0.3,2.1v8.5h-1.3v-8.5c0-1.2-0.3-2.2-0.9-2.9
					c-0.6-0.7-1.4-1.1-2.6-1.1c-0.9,0-1.7,0.2-2.4,0.7c-0.8,0.5-1.4,1.1-2,1.9v10H47.7z"/>
				<path class="st0" d="M62.4,24.6V5.2h1.3l0,8.5c0.6-0.8,1.3-1.4,2-1.9c0.8-0.5,1.7-0.7,2.6-0.7c1.6,0,2.9,0.6,3.8,1.7
					c0.9,1.1,1.4,2.8,1.4,5.1c0,1-0.1,1.9-0.4,2.7c-0.3,0.8-0.6,1.6-1.1,2.2s-1.1,1.1-1.8,1.5c-0.7,0.4-1.5,0.5-2.5,0.5
					c-0.9,0-1.7-0.2-2.4-0.5s-1.2-0.9-1.7-1.6l-0.1,1.6c0,0.2-0.1,0.3-0.4,0.3H62.4z M67.9,12.1c-0.9,0-1.7,0.2-2.4,0.7
					c-0.7,0.5-1.4,1.1-1.9,1.9v7c0.5,0.8,1.1,1.3,1.7,1.6c0.6,0.3,1.3,0.5,2.1,0.5c0.8,0,1.5-0.1,2.1-0.4c0.6-0.3,1.1-0.7,1.5-1.2
					c0.4-0.5,0.7-1.1,0.9-1.9c0.2-0.7,0.3-1.5,0.3-2.4c0-2-0.4-3.4-1.1-4.4C70.4,12.6,69.3,12.1,67.9,12.1z"/>
				<path class="st0" d="M85.3,24.6c-0.3,0-0.4-0.1-0.5-0.4l-0.2-1.7c-0.4,0.4-0.7,0.7-1.1,1c-0.4,0.3-0.7,0.5-1.1,0.7
					c-0.4,0.2-0.8,0.3-1.3,0.4c-0.5,0.1-1,0.2-1.5,0.2c-0.5,0-0.9-0.1-1.3-0.2c-0.4-0.1-0.8-0.3-1.1-0.6c-0.3-0.3-0.6-0.6-0.8-1.1
					c-0.2-0.4-0.3-1-0.3-1.6c0-0.6,0.2-1.1,0.5-1.6c0.3-0.5,0.8-0.9,1.5-1.3c0.7-0.4,1.6-0.6,2.6-0.9c1.1-0.2,2.4-0.3,3.9-0.4V16
					c0-1.2-0.3-2.2-0.8-2.8c-0.5-0.7-1.3-1-2.4-1c-0.6,0-1.2,0.1-1.6,0.3c-0.5,0.2-0.8,0.4-1.1,0.6c-0.3,0.2-0.6,0.4-0.8,0.6
					c-0.2,0.2-0.4,0.3-0.5,0.3c-0.2,0-0.3-0.1-0.4-0.2l-0.2-0.4c0.7-0.7,1.4-1.2,2.2-1.6c0.8-0.4,1.6-0.5,2.6-0.5
					c0.7,0,1.3,0.1,1.9,0.3c0.5,0.2,1,0.6,1.3,1c0.4,0.4,0.6,0.9,0.8,1.5c0.2,0.6,0.3,1.3,0.3,2v8.7H85.3z M80,23.9
					c0.5,0,1-0.1,1.4-0.2c0.4-0.1,0.8-0.3,1.2-0.5s0.7-0.4,1-0.7c0.3-0.3,0.6-0.6,1-0.9v-3.5c-1.3,0-2.4,0.1-3.3,0.3
					c-0.9,0.2-1.7,0.4-2.3,0.6c-0.6,0.3-1,0.6-1.3,1c-0.3,0.4-0.4,0.8-0.4,1.3c0,0.4,0.1,0.8,0.2,1.2c0.1,0.3,0.3,0.6,0.6,0.8
					c0.2,0.2,0.5,0.4,0.8,0.5C79.3,23.9,79.6,23.9,80,23.9z"/>
				<path class="st0" d="M89.9,24.6V11.3h0.7c0.2,0,0.3,0,0.3,0.1c0.1,0.1,0.1,0.2,0.1,0.3l0.1,2.8c0.4-1.1,1-1.9,1.7-2.5
					c0.7-0.6,1.6-0.9,2.6-0.9c0.4,0,0.8,0,1.1,0.1c0.3,0.1,0.7,0.2,1,0.4l-0.2,0.9c0,0.1-0.1,0.2-0.3,0.2c-0.1,0-0.1,0-0.2-0.1
					c-0.1,0-0.2-0.1-0.4-0.1c-0.1,0-0.3-0.1-0.5-0.1c-0.2,0-0.5-0.1-0.7-0.1c-1,0-1.8,0.3-2.5,0.9c-0.6,0.6-1.2,1.5-1.6,2.7v8.7
					H89.9z"/>
				<path class="st0" d="M102.7,6.7c0,0.2,0,0.3-0.1,0.4c-0.1,0.1-0.2,0.3-0.3,0.4c-0.1,0.1-0.2,0.2-0.4,0.3
					c-0.1,0.1-0.3,0.1-0.5,0.1c-0.2,0-0.3,0-0.5-0.1c-0.1-0.1-0.3-0.1-0.4-0.3c-0.1-0.1-0.2-0.2-0.3-0.4c-0.1-0.1-0.1-0.3-0.1-0.4
					c0-0.2,0-0.3,0.1-0.5c0.1-0.1,0.1-0.3,0.3-0.4c0.1-0.1,0.2-0.2,0.4-0.3c0.1-0.1,0.3-0.1,0.5-0.1c0.2,0,0.3,0,0.5,0.1
					c0.1,0.1,0.3,0.1,0.4,0.3c0.1,0.1,0.2,0.2,0.3,0.4C102.7,6.4,102.7,6.6,102.7,6.7z M102.2,11.3v13.3h-1.3V11.3H102.2z"/>
				<path class="st0" d="M111.3,11.1c0.6,0,1.1,0.1,1.6,0.2c0.5,0.1,0.9,0.3,1.3,0.6h3.4v0.4c0,0.2-0.1,0.3-0.4,0.4l-2,0.1
					c0.2,0.3,0.4,0.7,0.6,1.1c0.1,0.4,0.2,0.9,0.2,1.4c0,0.6-0.1,1.2-0.3,1.7s-0.6,1-1,1.3c-0.4,0.4-0.9,0.7-1.5,0.9
					c-0.6,0.2-1.2,0.3-1.9,0.3c-0.8,0-1.5-0.1-2.1-0.3c-0.4,0.2-0.7,0.5-0.9,0.8c-0.2,0.3-0.3,0.6-0.3,0.9c0,0.4,0.1,0.7,0.4,0.9
					c0.3,0.2,0.6,0.4,1.1,0.4c0.4,0.1,0.9,0.2,1.5,0.2c0.6,0,1.1,0.1,1.7,0.1c0.6,0,1.2,0.1,1.7,0.2c0.6,0.1,1.1,0.2,1.5,0.4
					c0.4,0.2,0.8,0.5,1.1,0.8c0.3,0.4,0.4,0.8,0.4,1.4c0,0.6-0.1,1.1-0.4,1.6c-0.3,0.5-0.7,1-1.2,1.4c-0.5,0.4-1.2,0.7-1.9,0.9
					c-0.7,0.2-1.6,0.4-2.5,0.4c-0.9,0-1.8-0.1-2.5-0.3c-0.7-0.2-1.3-0.4-1.8-0.8c-0.5-0.3-0.8-0.7-1.1-1.1c-0.2-0.4-0.4-0.9-0.4-1.4
					c0-0.7,0.2-1.3,0.7-1.8c0.5-0.5,1.1-0.9,1.9-1.2c-0.4-0.2-0.8-0.4-1.1-0.7c-0.3-0.3-0.4-0.7-0.4-1.2c0-0.2,0-0.4,0.1-0.6
					c0.1-0.2,0.2-0.4,0.3-0.6c0.1-0.2,0.3-0.4,0.5-0.6s0.4-0.3,0.7-0.5c-0.6-0.4-1.1-0.9-1.5-1.5c-0.4-0.6-0.5-1.3-0.5-2.1
					c0-0.6,0.1-1.2,0.3-1.7c0.2-0.5,0.5-1,1-1.3c0.4-0.4,0.9-0.7,1.5-0.9C109.9,11.2,110.5,11.1,111.3,11.1z M116.2,25.5
					c0-0.4-0.1-0.8-0.3-1c-0.2-0.3-0.5-0.5-0.9-0.6c-0.4-0.1-0.8-0.2-1.3-0.3c-0.5-0.1-1-0.1-1.5-0.1c-0.5,0-1-0.1-1.6-0.1
					c-0.5,0-1-0.1-1.5-0.2c-0.3,0.1-0.7,0.3-0.9,0.5c-0.3,0.2-0.5,0.4-0.7,0.6c-0.2,0.2-0.4,0.5-0.5,0.7c-0.1,0.3-0.2,0.6-0.2,0.9
					c0,0.4,0.1,0.8,0.3,1.1s0.5,0.6,0.9,0.9c0.4,0.2,0.9,0.4,1.4,0.6c0.6,0.1,1.2,0.2,1.9,0.2c0.7,0,1.3-0.1,1.9-0.2
					c0.6-0.2,1.1-0.4,1.5-0.6c0.4-0.3,0.8-0.6,1-1C116.1,26.4,116.2,26,116.2,25.5z M111.3,18.8c0.6,0,1.1-0.1,1.5-0.2
					c0.4-0.2,0.8-0.4,1.1-0.7s0.5-0.6,0.7-1.1c0.2-0.4,0.2-0.9,0.2-1.4c0-0.5-0.1-1-0.2-1.4c-0.2-0.4-0.4-0.8-0.7-1.1
					c-0.3-0.3-0.7-0.5-1.1-0.7c-0.4-0.2-0.9-0.2-1.5-0.2s-1.1,0.1-1.5,0.2c-0.4,0.2-0.8,0.4-1.1,0.7c-0.3,0.3-0.5,0.6-0.7,1.1
					c-0.2,0.4-0.2,0.9-0.2,1.4c0,0.5,0.1,1,0.2,1.4c0.2,0.4,0.4,0.8,0.7,1.1s0.7,0.5,1.1,0.7C110.2,18.7,110.7,18.8,111.3,18.8z"/>
				<path class="st0" d="M128.9,24.6c-0.3,0-0.4-0.1-0.5-0.4l-0.2-1.7c-0.4,0.4-0.7,0.7-1.1,1s-0.7,0.5-1.1,0.7
					c-0.4,0.2-0.8,0.3-1.3,0.4c-0.5,0.1-1,0.2-1.5,0.2c-0.5,0-0.9-0.1-1.3-0.2s-0.8-0.3-1.1-0.6c-0.3-0.3-0.6-0.6-0.8-1.1
					c-0.2-0.4-0.3-1-0.3-1.6c0-0.6,0.2-1.1,0.5-1.6c0.3-0.5,0.8-0.9,1.5-1.3c0.7-0.4,1.6-0.6,2.6-0.9c1.1-0.2,2.4-0.3,3.9-0.4V16
					c0-1.2-0.3-2.2-0.8-2.8c-0.5-0.7-1.3-1-2.4-1c-0.6,0-1.2,0.1-1.6,0.3c-0.5,0.2-0.8,0.4-1.1,0.6c-0.3,0.2-0.6,0.4-0.8,0.6
					c-0.2,0.2-0.4,0.3-0.5,0.3c-0.2,0-0.3-0.1-0.4-0.2l-0.2-0.4c0.7-0.7,1.4-1.2,2.2-1.6c0.8-0.4,1.6-0.5,2.6-0.5
					c0.7,0,1.3,0.1,1.9,0.3c0.5,0.2,1,0.6,1.3,1c0.4,0.4,0.6,0.9,0.8,1.5c0.2,0.6,0.3,1.3,0.3,2v8.7H128.9z M123.5,23.9
					c0.5,0,1-0.1,1.4-0.2c0.4-0.1,0.8-0.3,1.2-0.5s0.7-0.4,1-0.7c0.3-0.3,0.6-0.6,1-0.9v-3.5c-1.3,0-2.4,0.1-3.3,0.3
					c-0.9,0.2-1.7,0.4-2.3,0.6c-0.6,0.3-1,0.6-1.3,1c-0.3,0.4-0.4,0.8-0.4,1.3c0,0.4,0.1,0.8,0.2,1.2c0.1,0.3,0.3,0.6,0.6,0.8
					c0.2,0.2,0.5,0.4,0.8,0.5C122.8,23.9,123.2,23.9,123.5,23.9z"/>
				<path class="st0" d="M133.4,24.6V11.3h0.7c0.2,0,0.4,0.1,0.4,0.3l0.1,1.9c0.3-0.4,0.5-0.7,0.8-1s0.6-0.6,0.9-0.8
					c0.3-0.2,0.7-0.4,1.1-0.5c0.4-0.1,0.8-0.2,1.2-0.2c1,0,1.7,0.3,2.3,0.9c0.6,0.6,1,1.4,1.2,2.4c0.2-0.6,0.4-1,0.7-1.4
					c0.3-0.4,0.6-0.7,1-1c0.4-0.3,0.8-0.5,1.2-0.6c0.4-0.1,0.9-0.2,1.4-0.2c0.7,0,1.3,0.1,1.8,0.3c0.5,0.2,1,0.5,1.3,1
					c0.4,0.4,0.7,1,0.8,1.6c0.2,0.6,0.3,1.3,0.3,2.1v8.5h-1.3v-8.5c0-1.3-0.3-2.3-0.8-3c-0.6-0.7-1.4-1-2.4-1
					c-0.5,0-0.9,0.1-1.3,0.3c-0.4,0.2-0.8,0.4-1.1,0.8c-0.3,0.3-0.6,0.8-0.8,1.3c-0.2,0.5-0.3,1.1-0.3,1.7v8.5h-1.3v-8.5
					c0-1.3-0.3-2.3-0.8-3c-0.5-0.7-1.3-1-2.3-1c-0.7,0-1.4,0.2-2,0.6c-0.6,0.4-1.2,1-1.6,1.8v10.1H133.4z"/>
				<path class="st0" d="M156.9,6.7c0,0.2,0,0.3-0.1,0.4c-0.1,0.1-0.2,0.3-0.3,0.4c-0.1,0.1-0.2,0.2-0.4,0.3
					c-0.1,0.1-0.3,0.1-0.5,0.1c-0.2,0-0.3,0-0.5-0.1c-0.1-0.1-0.3-0.1-0.4-0.3c-0.1-0.1-0.2-0.2-0.3-0.4c-0.1-0.1-0.1-0.3-0.1-0.4
					c0-0.2,0-0.3,0.1-0.5c0.1-0.1,0.1-0.3,0.3-0.4c0.1-0.1,0.2-0.2,0.4-0.3c0.1-0.1,0.3-0.1,0.5-0.1c0.2,0,0.3,0,0.5,0.1
					c0.1,0.1,0.3,0.1,0.4,0.3c0.1,0.1,0.2,0.2,0.3,0.4C156.9,6.4,156.9,6.6,156.9,6.7z M156.4,11.3v13.3h-1.3V11.3H156.4z"/>
			</g>
		</g>
		<g>
			<g>
				<path class="st0" d="M48.3,43.4h-0.6c-0.1,0-0.1,0-0.2-0.1c0,0-0.1-0.1-0.1-0.1l-1.2-2.9h-4.8l-1.2,2.9c0,0.1-0.1,0.1-0.1,0.1
					c0,0-0.1,0.1-0.2,0.1h-0.5l4-9.9h0.7L48.3,43.4z M41.7,39.8h4.4l-2-5c0-0.1-0.1-0.2-0.1-0.3c0-0.1-0.1-0.2-0.1-0.3
					c0,0.1-0.1,0.2-0.1,0.3c0,0.1-0.1,0.2-0.1,0.3L41.7,39.8z"/>
				<path class="st0" d="M50,43.4v-6.9h0.3c0.1,0,0.1,0,0.2,0c0,0,0.1,0.1,0.1,0.2l0.1,1.5c0.2-0.6,0.5-1,0.9-1.3
					c0.4-0.3,0.8-0.5,1.4-0.5c0.2,0,0.4,0,0.6,0.1c0.2,0,0.3,0.1,0.5,0.2l-0.1,0.5c0,0.1-0.1,0.1-0.1,0.1c0,0-0.1,0-0.1,0
					c-0.1,0-0.1,0-0.2-0.1s-0.2,0-0.3-0.1c-0.1,0-0.2,0-0.4,0c-0.5,0-1,0.2-1.3,0.5c-0.3,0.3-0.6,0.8-0.8,1.4v4.5H50z"/>
				<path class="st0" d="M57.8,43.5c-0.5,0-0.8-0.1-1.1-0.4c-0.3-0.3-0.4-0.7-0.4-1.2v-4.7h-1c-0.1,0-0.1,0-0.1,0c0,0,0-0.1,0-0.1
					v-0.3l1.2-0.1l0.2-2.5c0,0,0-0.1,0.1-0.1c0,0,0.1,0,0.1,0H57v2.6h2.2v0.5H57v4.7c0,0.2,0,0.4,0.1,0.5c0,0.1,0.1,0.3,0.2,0.3
					c0.1,0.1,0.2,0.2,0.3,0.2c0.1,0,0.2,0.1,0.4,0.1c0.2,0,0.3,0,0.4-0.1c0.1,0,0.2-0.1,0.3-0.2c0.1-0.1,0.2-0.1,0.2-0.2
					c0.1,0,0.1-0.1,0.1-0.1c0,0,0.1,0,0.1,0.1l0.2,0.3c-0.2,0.2-0.4,0.4-0.7,0.5C58.4,43.5,58.1,43.5,57.8,43.5z"/>
				<path class="st0" d="M67.9,33.5c0.3,0,0.6,0.1,0.9,0.2c0.3,0.1,0.5,0.3,0.7,0.4c0.2,0.2,0.4,0.4,0.5,0.6
					c0.1,0.2,0.2,0.5,0.2,0.7c-0.1,0-0.1,0-0.2,0c-0.1,0-0.2,0-0.3,0c0,0-0.1,0-0.1,0c0,0-0.1-0.1-0.1-0.1c0-0.1-0.1-0.3-0.2-0.4
					c-0.1-0.2-0.2-0.3-0.3-0.4c-0.1-0.1-0.3-0.3-0.5-0.4C68.4,34,68.2,34,67.9,34c-0.3,0-0.5,0-0.8,0.1c-0.2,0.1-0.4,0.2-0.6,0.4
					c-0.2,0.2-0.3,0.3-0.4,0.6c-0.1,0.2-0.1,0.4-0.1,0.7c0,0.4,0.1,0.7,0.3,1.1c0.2,0.3,0.5,0.7,0.9,1.1l3.1,3.1
					c0.2-0.3,0.4-0.7,0.5-1c0.1-0.4,0.2-0.7,0.2-1.1c0-0.1,0-0.1,0.1-0.1c0,0,0.1-0.1,0.1-0.1h0.4c0,0.4-0.1,0.9-0.2,1.3
					c-0.2,0.5-0.4,0.9-0.7,1.3l2.1,2h-0.6c-0.1,0-0.2,0-0.2,0c-0.1,0-0.1-0.1-0.2-0.1l-1.4-1.4c-0.2,0.2-0.4,0.5-0.7,0.7
					c-0.3,0.2-0.5,0.4-0.8,0.5c-0.3,0.1-0.6,0.3-0.9,0.3c-0.3,0.1-0.7,0.1-1,0.1c-0.3,0-0.7-0.1-1-0.2s-0.6-0.3-0.9-0.5
					c-0.3-0.2-0.5-0.5-0.6-0.8c-0.2-0.3-0.2-0.7-0.2-1.1c0-0.3,0.1-0.7,0.2-1c0.1-0.3,0.3-0.6,0.5-0.8s0.5-0.5,0.7-0.7
					c0.3-0.2,0.6-0.4,0.9-0.5c-0.3-0.4-0.6-0.7-0.7-1.1c-0.2-0.4-0.2-0.7-0.2-1.1c0-0.3,0.1-0.6,0.2-0.9s0.3-0.5,0.5-0.7
					c0.2-0.2,0.5-0.4,0.8-0.5C67.2,33.5,67.5,33.5,67.9,33.5z M64.7,40.9c0,0.4,0.1,0.7,0.2,0.9c0.1,0.3,0.3,0.5,0.5,0.7
					c0.2,0.2,0.5,0.3,0.7,0.4S66.7,43,67,43c0.3,0,0.6,0,0.9-0.1c0.3-0.1,0.6-0.2,0.8-0.3c0.3-0.1,0.5-0.3,0.7-0.5
					c0.2-0.2,0.4-0.4,0.6-0.6l-3.2-3.1c0,0-0.1,0-0.1-0.1c-0.3,0.1-0.6,0.3-0.8,0.5s-0.5,0.4-0.6,0.6c-0.2,0.2-0.3,0.5-0.4,0.7
					C64.8,40.3,64.7,40.6,64.7,40.9z"/>
				<path class="st0" d="M86.3,38.5c0,0.8-0.1,1.4-0.3,2.1c-0.2,0.6-0.5,1.1-1,1.6c-0.4,0.4-0.9,0.8-1.5,1c-0.6,0.2-1.2,0.3-1.9,0.3
					H78v-9.9h3.6c0.7,0,1.3,0.1,1.9,0.3c0.6,0.2,1.1,0.6,1.5,1c0.4,0.4,0.7,0.9,1,1.6C86.1,37,86.3,37.7,86.3,38.5z M85.5,38.5
					c0-0.7-0.1-1.3-0.3-1.8c-0.2-0.5-0.5-1-0.8-1.4c-0.3-0.4-0.8-0.7-1.3-0.8c-0.5-0.2-1-0.3-1.6-0.3h-2.9v8.7h2.9
					c0.6,0,1.1-0.1,1.6-0.3c0.5-0.2,0.9-0.5,1.3-0.8c0.3-0.4,0.6-0.8,0.8-1.4C85.4,39.8,85.5,39.2,85.5,38.5z"/>
				<path class="st0" d="M91.3,36.4c0.4,0,0.8,0.1,1.1,0.2c0.3,0.1,0.6,0.3,0.9,0.6c0.2,0.3,0.4,0.6,0.6,1c0.1,0.4,0.2,0.8,0.2,1.3
					c0,0.1,0,0.2,0,0.2c0,0-0.1,0.1-0.1,0.1h-5v0.1c0,0.5,0.1,1,0.2,1.4c0.1,0.4,0.3,0.7,0.5,1c0.2,0.3,0.5,0.5,0.8,0.6
					c0.3,0.1,0.7,0.2,1.1,0.2c0.3,0,0.7,0,0.9-0.1c0.3-0.1,0.5-0.2,0.6-0.3c0.2-0.1,0.3-0.2,0.4-0.3c0.1-0.1,0.2-0.1,0.2-0.1
					c0.1,0,0.1,0,0.1,0.1l0.2,0.2c-0.1,0.1-0.3,0.3-0.4,0.4c-0.2,0.1-0.4,0.2-0.6,0.3c-0.2,0.1-0.5,0.2-0.7,0.2
					c-0.3,0.1-0.5,0.1-0.8,0.1c-0.5,0-0.9-0.1-1.3-0.2c-0.4-0.2-0.7-0.4-1-0.7c-0.3-0.3-0.5-0.7-0.6-1.2c-0.2-0.5-0.2-1-0.2-1.6
					c0-0.5,0.1-1,0.2-1.4c0.1-0.4,0.3-0.8,0.6-1.1c0.3-0.3,0.6-0.5,1-0.7C90.3,36.5,90.8,36.4,91.3,36.4z M91.3,36.9
					c-0.4,0-0.7,0.1-1,0.2c-0.3,0.1-0.5,0.3-0.7,0.5c-0.2,0.2-0.4,0.5-0.5,0.8c-0.1,0.3-0.2,0.6-0.3,1h4.6c0-0.4-0.1-0.7-0.2-1
					c-0.1-0.3-0.2-0.5-0.4-0.7c-0.2-0.2-0.4-0.4-0.7-0.5C91.9,36.9,91.6,36.9,91.3,36.9z"/>
				<path class="st0" d="M100,37.4c0,0.1-0.1,0.1-0.2,0.1c-0.1,0-0.1,0-0.2-0.1c-0.1-0.1-0.2-0.1-0.3-0.2C99.2,37.1,99,37,98.8,37
					c-0.2-0.1-0.4-0.1-0.7-0.1c-0.3,0-0.5,0-0.7,0.1c-0.2,0.1-0.4,0.2-0.5,0.3c-0.1,0.1-0.3,0.3-0.3,0.4c-0.1,0.2-0.1,0.3-0.1,0.5
					c0,0.2,0.1,0.4,0.2,0.5c0.1,0.1,0.3,0.3,0.4,0.4c0.2,0.1,0.4,0.2,0.6,0.3c0.2,0.1,0.5,0.1,0.7,0.2c0.2,0.1,0.5,0.2,0.7,0.2
					c0.2,0.1,0.4,0.2,0.6,0.3c0.2,0.1,0.3,0.3,0.4,0.5c0.1,0.2,0.2,0.4,0.2,0.7c0,0.3-0.1,0.6-0.2,0.8c-0.1,0.3-0.3,0.5-0.5,0.7
					c-0.2,0.2-0.5,0.3-0.8,0.5c-0.3,0.1-0.6,0.2-1,0.2c-0.5,0-0.9-0.1-1.3-0.2c-0.4-0.2-0.7-0.4-0.9-0.6l0.2-0.2c0,0,0-0.1,0.1-0.1
					c0,0,0.1,0,0.1,0c0.1,0,0.1,0,0.2,0.1c0.1,0.1,0.2,0.2,0.3,0.2c0.1,0.1,0.3,0.2,0.5,0.2c0.2,0.1,0.5,0.1,0.8,0.1
					c0.3,0,0.6,0,0.8-0.1c0.2-0.1,0.4-0.2,0.6-0.3c0.1-0.1,0.3-0.3,0.3-0.5c0.1-0.2,0.1-0.4,0.1-0.6c0-0.2-0.1-0.4-0.2-0.6
					c-0.1-0.2-0.3-0.3-0.4-0.4c-0.2-0.1-0.4-0.2-0.6-0.3c-0.2-0.1-0.5-0.1-0.7-0.2c-0.2-0.1-0.5-0.2-0.7-0.2
					c-0.2-0.1-0.4-0.2-0.6-0.3c-0.2-0.1-0.3-0.3-0.4-0.5c-0.1-0.2-0.2-0.4-0.2-0.7c0-0.2,0.1-0.5,0.2-0.7c0.1-0.2,0.3-0.4,0.5-0.6
					c0.2-0.2,0.4-0.3,0.7-0.4c0.3-0.1,0.6-0.2,1-0.2c0.4,0,0.8,0.1,1.1,0.2s0.6,0.3,0.9,0.6L100,37.4z"/>
				<path class="st0" d="M103.8,34.1c0,0.1,0,0.2-0.1,0.2c0,0.1-0.1,0.1-0.1,0.2c-0.1,0.1-0.1,0.1-0.2,0.1c-0.1,0-0.2,0-0.2,0
					s-0.2,0-0.2,0c-0.1,0-0.1-0.1-0.2-0.1c-0.1-0.1-0.1-0.1-0.1-0.2c0-0.1,0-0.1,0-0.2c0-0.1,0-0.2,0-0.2c0-0.1,0.1-0.1,0.1-0.2
					c0.1-0.1,0.1-0.1,0.2-0.1c0.1,0,0.2,0,0.2,0s0.2,0,0.2,0c0.1,0,0.1,0.1,0.2,0.1c0.1,0.1,0.1,0.1,0.1,0.2
					C103.7,33.9,103.8,34,103.8,34.1z M103.5,36.5v6.9h-0.7v-6.9H103.5z"/>
				<path class="st0" d="M108.6,36.4c0.3,0,0.6,0,0.8,0.1c0.3,0.1,0.5,0.2,0.7,0.3h1.8V37c0,0.1-0.1,0.2-0.2,0.2l-1.1,0.1
					c0.1,0.2,0.2,0.4,0.3,0.6c0.1,0.2,0.1,0.5,0.1,0.7c0,0.3-0.1,0.6-0.2,0.9c-0.1,0.3-0.3,0.5-0.5,0.7s-0.5,0.3-0.8,0.4
					c-0.3,0.1-0.6,0.2-1,0.2c-0.4,0-0.8-0.1-1.1-0.2c-0.2,0.1-0.3,0.2-0.5,0.4c-0.1,0.2-0.2,0.3-0.2,0.4c0,0.2,0.1,0.4,0.2,0.5
					c0.1,0.1,0.3,0.2,0.6,0.2c0.2,0,0.5,0.1,0.8,0.1c0.3,0,0.6,0,0.9,0c0.3,0,0.6,0,0.9,0.1c0.3,0,0.6,0.1,0.8,0.2
					c0.2,0.1,0.4,0.3,0.6,0.4c0.1,0.2,0.2,0.4,0.2,0.7c0,0.3-0.1,0.6-0.2,0.8c-0.1,0.3-0.4,0.5-0.6,0.7c-0.3,0.2-0.6,0.4-1,0.5
					c-0.4,0.1-0.8,0.2-1.3,0.2c-0.5,0-0.9,0-1.3-0.1c-0.4-0.1-0.7-0.2-0.9-0.4c-0.2-0.2-0.4-0.4-0.6-0.6c-0.1-0.2-0.2-0.5-0.2-0.7
					c0-0.4,0.1-0.7,0.4-0.9c0.2-0.3,0.6-0.5,1-0.6c-0.2-0.1-0.4-0.2-0.6-0.3c-0.1-0.1-0.2-0.4-0.2-0.6c0-0.1,0-0.2,0.1-0.3
					c0-0.1,0.1-0.2,0.2-0.3c0.1-0.1,0.2-0.2,0.3-0.3s0.2-0.2,0.4-0.3c-0.3-0.2-0.6-0.4-0.8-0.8c-0.2-0.3-0.3-0.7-0.3-1.1
					c0-0.3,0.1-0.6,0.2-0.9c0.1-0.3,0.3-0.5,0.5-0.7c0.2-0.2,0.5-0.3,0.8-0.5C107.9,36.4,108.3,36.4,108.6,36.4z M111.2,43.9
					c0-0.2-0.1-0.4-0.2-0.5c-0.1-0.1-0.3-0.2-0.5-0.3c-0.2-0.1-0.4-0.1-0.7-0.2c-0.2,0-0.5-0.1-0.8-0.1c-0.3,0-0.5,0-0.8,0
					c-0.3,0-0.5,0-0.8-0.1c-0.2,0.1-0.3,0.2-0.5,0.2c-0.2,0.1-0.3,0.2-0.4,0.3c-0.1,0.1-0.2,0.2-0.3,0.4c-0.1,0.1-0.1,0.3-0.1,0.4
					c0,0.2,0.1,0.4,0.2,0.6c0.1,0.2,0.3,0.3,0.5,0.5c0.2,0.1,0.4,0.2,0.7,0.3c0.3,0.1,0.6,0.1,1,0.1c0.4,0,0.7,0,1-0.1
					c0.3-0.1,0.6-0.2,0.8-0.3c0.2-0.1,0.4-0.3,0.5-0.5C111.1,44.3,111.2,44.1,111.2,43.9z M108.6,40.4c0.3,0,0.6,0,0.8-0.1
					s0.4-0.2,0.6-0.4c0.2-0.2,0.3-0.3,0.4-0.5c0.1-0.2,0.1-0.5,0.1-0.7c0-0.3,0-0.5-0.1-0.7c-0.1-0.2-0.2-0.4-0.4-0.6
					c-0.2-0.2-0.4-0.3-0.6-0.4c-0.2-0.1-0.5-0.1-0.8-0.1c-0.3,0-0.6,0-0.8,0.1c-0.2,0.1-0.4,0.2-0.6,0.4c-0.2,0.2-0.3,0.3-0.4,0.6
					c-0.1,0.2-0.1,0.5-0.1,0.7c0,0.3,0,0.5,0.1,0.7c0.1,0.2,0.2,0.4,0.4,0.5c0.2,0.2,0.4,0.3,0.6,0.4S108.3,40.4,108.6,40.4z"/>
				<path class="st0" d="M113.8,43.4v-6.9h0.4c0.1,0,0.2,0.1,0.2,0.2l0.1,1c0.3-0.4,0.7-0.7,1.1-1c0.4-0.2,0.9-0.4,1.4-0.4
					c0.4,0,0.7,0.1,1,0.2c0.3,0.1,0.5,0.3,0.7,0.5c0.2,0.2,0.3,0.5,0.4,0.8c0.1,0.3,0.1,0.7,0.1,1.1v4.4h-0.7V39
					c0-0.6-0.1-1.2-0.4-1.5c-0.3-0.4-0.8-0.6-1.4-0.6c-0.5,0-0.9,0.1-1.3,0.4c-0.4,0.2-0.7,0.6-1,1v5.2H113.8z"/>
			</g>
		</g>
	</g>
	<g>
		<g>
			<line class="st1" x1="30.7" y1="41.2" x2="20.8" y2="37.8"/>
			<polyline class="st1" points="16.9,14.7 24,28.6 19.3,42.1 			"/>
			<polyline class="st1" points="8.3,13.3 3.1,29.7 7.6,40.2 			"/>
			<polyline class="st1" points="12.6,16.7 16.8,14.9 19.3,12.8 28.5,11.6 19.3,9.4 14.7,5.7 11.1,4 8.1,13.9 			"/>
			<polyline class="st1" points="19.8,40.8 30.7,41.2 12.6,44.1 7.6,40.2 17.6,40.6 			"/>
			<polygon class="st1" points="15.4,18.4 8.3,13.6 17.6,40.6 19.4,42.1 			"/>
		</g>
	</g>
</g>
</svg>
